<svg xmlns="http://www.w3.org/2000/svg">
    <symbol id="logo" viewBox="0 0 80 48">
        <path d="M12.107 2.76C12.4004 2.78667 12.5604 2.86667 12.587 3C12.6137 3.10667 12.4804 3.14667 12.187 3.12C10.747 2.98666 9.3737 3.14667 8.06703 3.6C6.76036 4.02666 5.60036 4.61333 4.58703 5.36C3.60036 6.10667 2.8137 6.89333 2.22703 7.72C1.66703 8.54667 1.38703 9.26667 1.38703 9.88C1.38703 11.08 1.8537 11.9733 2.78703 12.56C3.72036 13.1467 4.92036 13.44 6.38703 13.44C7.66703 13.44 9.02703 13.2267 10.467 12.8C11.907 12.3467 13.3204 11.7733 14.707 11.08C16.0937 10.36 17.347 9.61333 18.467 8.84C19.587 8.04 20.4804 7.29333 21.147 6.6C21.8137 5.90667 22.147 5.34667 22.147 4.92C22.147 4.6 22.0137 4.4 21.747 4.32C21.507 4.21333 21.227 4.16 20.907 4.16C20.027 4.16 18.9604 4.46667 17.707 5.08C16.4537 5.69333 15.107 6.53333 13.667 7.6C12.2537 8.64 10.8537 9.8 9.46703 11.08C8.10703 12.36 6.8537 13.68 5.70703 15.04C4.58703 16.3733 3.68036 17.6533 2.98703 18.88C2.32036 20.1067 1.98703 21.1733 1.98703 22.08C1.98703 23.0933 2.2937 23.8267 2.90703 24.28C3.54703 24.7333 4.2937 24.96 5.14703 24.96C5.9737 24.96 6.8137 24.7333 7.66703 24.28C8.54703 23.8267 9.40036 23.24 10.227 22.52C11.0537 21.8 11.787 21.0267 12.427 20.2C13.0937 19.3733 13.6137 18.56 13.987 17.76C14.387 16.96 14.587 16.2667 14.587 15.68C14.587 15.1733 14.4404 14.84 14.147 14.68C13.8804 14.52 13.5604 14.44 13.187 14.44C12.147 14.44 11.1204 14.76 10.107 15.4C9.0937 16.0133 8.1737 16.84 7.34703 17.88C6.52036 18.8933 5.8537 20.0133 5.34703 21.24C4.86703 22.44 4.62703 23.64 4.62703 24.84C4.62703 25.2933 4.70703 25.8133 4.86703 26.4C5.02703 26.9867 5.18703 27.4933 5.34703 27.92C5.50703 28.3733 5.58703 28.6533 5.58703 28.76C5.6137 28.9467 5.58703 29.0933 5.50703 29.2C5.42703 29.3067 5.30703 29.2667 5.14703 29.08C4.98703 28.92 4.78703 28.4667 4.54703 27.72C4.30703 26.9733 4.18703 26.04 4.18703 24.92C4.18703 23.5867 4.42703 22.28 4.90703 21C5.4137 19.72 6.0937 18.56 6.94703 17.52C7.80036 16.4533 8.78703 15.6133 9.90703 15C11.027 14.36 12.227 14.04 13.507 14.04C14.1737 14.04 14.7604 14.2267 15.267 14.6C15.7737 14.9467 16.027 15.4667 16.027 16.16C16.027 16.9867 15.747 17.92 15.187 18.96C14.6537 20 13.8804 21.0133 12.867 22C11.8804 22.96 10.707 23.76 9.34703 24.4C8.0137 25.0133 6.56036 25.32 4.98703 25.32C3.60036 25.32 2.5737 24.9333 1.90703 24.16C1.26703 23.36 0.947031 22.4933 0.947031 21.56C0.947031 20.28 1.24036 18.96 1.82703 17.6C2.44036 16.24 3.26703 14.8933 4.30703 13.56C5.34703 12.2267 6.5337 10.9733 7.86703 9.8C9.20037 8.62667 10.6137 7.6 12.107 6.72C13.627 5.81333 15.147 5.10667 16.667 4.6C18.187 4.06667 19.6404 3.8 21.027 3.8C21.347 3.8 21.6804 3.86667 22.027 4C22.3737 4.13333 22.547 4.38667 22.547 4.76C22.547 5.50667 22.2004 6.29333 21.507 7.12C20.8404 7.94667 19.9204 8.76 18.747 9.56C17.6004 10.3333 16.3204 11.04 14.907 11.68C13.4937 12.32 12.0404 12.84 10.547 13.24C9.08036 13.6133 7.68037 13.8 6.34703 13.8C4.6137 13.8 3.24036 13.48 2.22703 12.84C1.24036 12.1733 0.747031 11.0533 0.747031 9.48C0.747031 8.65333 1.08036 7.82667 1.74703 7C2.4137 6.14667 3.2937 5.38667 4.38703 4.72C5.50703 4.05333 6.7337 3.53333 8.06703 3.16C9.42703 2.78667 10.7737 2.65333 12.107 2.76ZM28.3645 18C28.2579 18.2133 28.0979 18.4 27.8845 18.56C27.6979 18.72 27.5512 18.8267 27.4445 18.88C27.3645 18.9067 27.3912 18.8267 27.5245 18.64C28.0045 18.0533 28.3112 17.5067 28.4445 17C28.6045 16.4933 28.6045 16.0933 28.4445 15.8C28.3112 15.48 28.0445 15.32 27.6445 15.32C27.1112 15.32 26.4845 15.5333 25.7645 15.96C25.0445 16.3867 24.2979 16.9467 23.5245 17.64C22.7779 18.3333 22.0712 19.08 21.4045 19.88C20.7645 20.6533 20.2445 21.4133 19.8445 22.16C19.4445 22.88 19.2445 23.5067 19.2445 24.04C19.2445 24.44 19.3245 24.6933 19.4845 24.8C19.6445 24.9067 19.8045 24.96 19.9645 24.96C20.5779 24.96 21.2845 24.68 22.0845 24.12C22.9112 23.5333 23.7512 22.8 24.6045 21.92C25.4579 21.04 26.2712 20.1467 27.0445 19.24C27.8179 18.3067 28.4845 17.4667 29.0445 16.72C29.6312 15.9733 30.0312 15.4667 30.2445 15.2C30.5379 15.3067 30.8845 15.3467 31.2845 15.32C31.7112 15.2933 32.0712 15.2667 32.3645 15.24C32.3112 15.32 32.0312 15.6533 31.5245 16.24C31.0445 16.8267 30.4579 17.5333 29.7645 18.36C29.0979 19.16 28.4179 19.9867 27.7245 20.84C27.0579 21.6933 26.4979 22.44 26.0445 23.08C25.5912 23.72 25.3645 24.1467 25.3645 24.36C25.3645 24.6267 25.4179 24.8 25.5245 24.88C25.6579 24.9333 25.8579 24.96 26.1245 24.96C26.4445 24.9333 26.9112 24.7867 27.5245 24.52C28.1379 24.2267 28.9245 23.6667 29.8845 22.84C30.8445 22.0133 32.0045 20.7867 33.3645 19.16C33.3645 19.16 33.4179 19.2 33.5245 19.28C33.6579 19.36 33.7245 19.4 33.7245 19.4C32.1245 21.2667 30.6445 22.7333 29.2845 23.8C27.9245 24.84 26.6845 25.36 25.5645 25.36C24.9779 25.36 24.5779 25.2667 24.3645 25.08C24.1779 24.8933 24.0845 24.6267 24.0845 24.28C24.0845 24.0133 24.1912 23.6933 24.4045 23.32C24.6445 22.92 24.9112 22.5333 25.2045 22.16C25.4979 21.7867 25.7379 21.4933 25.9245 21.28C25.9245 21.28 25.8979 21.2667 25.8445 21.24C25.7912 21.2133 25.7645 21.2 25.7645 21.2C25.1512 21.9467 24.4979 22.64 23.8045 23.28C23.1112 23.92 22.4179 24.4267 21.7245 24.8C21.0579 25.1733 20.4045 25.36 19.7645 25.36C19.0979 25.36 18.6312 25.2 18.3645 24.88C18.0979 24.5333 17.9645 24.0133 17.9645 23.32C17.9645 22.6533 18.1779 21.8533 18.6045 20.92C19.0312 19.96 19.6445 19.0267 20.4445 18.12C21.2445 17.1867 22.2045 16.4133 23.3245 15.8C24.4712 15.1867 25.7512 14.88 27.1645 14.88C27.8579 14.88 28.3379 15.0133 28.6045 15.28C28.8712 15.52 28.9912 15.8133 28.9645 16.16C28.9379 16.5067 28.8579 16.8533 28.7245 17.2C28.5912 17.5467 28.4712 17.8133 28.3645 18ZM41.0755 17.84C40.7021 17.84 40.4221 17.76 40.2355 17.6C40.0755 17.4133 39.9955 17.2 39.9955 16.96C39.9955 16.72 40.0888 16.4933 40.2755 16.28C40.4888 16.04 40.7688 15.92 41.1155 15.92C41.3288 15.92 41.5155 15.9467 41.6755 16C41.8355 16.0533 41.9155 16.08 41.9155 16.08C41.9421 15.8133 41.8755 15.5867 41.7155 15.4C41.5555 15.1867 41.2488 15.08 40.7955 15.08C40.3688 15.08 39.8488 15.2667 39.2355 15.64C38.6221 16.0133 37.9821 16.5067 37.3155 17.12C36.6755 17.7333 36.0621 18.4 35.4755 19.12C34.9155 19.84 34.4621 20.5733 34.1155 21.32C33.7688 22.04 33.5955 22.6933 33.5955 23.28C33.5955 23.9467 33.8088 24.3867 34.2355 24.6C34.6621 24.8133 35.1288 24.92 35.6355 24.92C36.5955 24.92 37.5421 24.6933 38.4755 24.24C39.4088 23.76 40.2621 23.1867 41.0355 22.52C41.8355 21.8267 42.5155 21.16 43.0755 20.52C43.6355 19.88 44.0355 19.3867 44.2755 19.04L44.6355 19.28C44.4221 19.6 44.0221 20.0933 43.4355 20.76C42.8488 21.4267 42.1288 22.12 41.2755 22.84C40.4488 23.5333 39.5288 24.1333 38.5155 24.64C37.5021 25.12 36.4355 25.36 35.3155 25.36C34.4088 25.36 33.6488 25.16 33.0355 24.76C32.3955 24.3333 32.0755 23.68 32.0755 22.8C32.0755 22.0533 32.2888 21.2267 32.7155 20.32C33.1421 19.3867 33.7288 18.5067 34.4755 17.68C35.2488 16.8267 36.1555 16.1333 37.1955 15.6C38.2621 15.04 39.4355 14.76 40.7155 14.76C41.2221 14.76 41.6621 14.8667 42.0355 15.08C42.4088 15.2933 42.5955 15.6667 42.5955 16.2C42.5955 16.68 42.4221 17.08 42.0755 17.4C41.7555 17.6933 41.4221 17.84 41.0755 17.84ZM57.1339 0.76C57.4539 0.813332 57.7872 0.853332 58.1339 0.879998C58.5072 0.879998 58.8806 0.839999 59.2539 0.76C59.2272 0.786666 59.0006 1.10667 58.5739 1.72C58.1472 2.30667 57.5606 3.10667 56.8139 4.12C56.0939 5.10667 55.2806 6.22667 54.3739 7.48C53.4939 8.73333 52.5739 10.0267 51.6139 11.36C50.6806 12.6667 49.7606 13.9467 48.8539 15.2C47.9739 16.4267 47.1606 17.5467 46.4139 18.56C45.6939 19.5733 45.1206 20.3867 44.6939 21C44.2672 21.6133 44.0406 21.9333 44.0139 21.96C44.0139 21.96 44.0272 21.9867 44.0539 22.04C44.0806 22.0667 44.0939 22.0933 44.0939 22.12C44.7606 21.4 45.4806 20.6133 46.2539 19.76C47.0272 18.9067 47.8139 18.1067 48.6139 17.36C49.4139 16.5867 50.2006 15.96 50.9739 15.48C51.7739 15 52.5072 14.76 53.1739 14.76C54.0272 14.76 54.5739 14.96 54.8139 15.36C55.0806 15.7333 55.2139 16.0667 55.2139 16.36C55.2139 16.92 55.0272 17.5333 54.6539 18.2C54.2806 18.8667 53.8139 19.5333 53.2539 20.2C52.7206 20.8667 52.1739 21.4933 51.6139 22.08C51.0806 22.64 50.6272 23.1333 50.2539 23.56C49.8806 23.9867 49.6939 24.2933 49.6939 24.48C49.6939 24.6933 49.8539 24.8267 50.1739 24.88C50.5206 24.9067 50.8006 24.92 51.0139 24.92C51.6272 24.92 52.2939 24.6933 53.0139 24.24C53.7339 23.7867 54.4406 23.2267 55.1339 22.56C55.8272 21.8933 56.4539 21.24 57.0139 20.6C57.5739 19.96 58.0006 19.4533 58.2939 19.08L58.6139 19.32C58.3472 19.64 57.9472 20.1333 57.4139 20.8C56.8806 21.44 56.2406 22.12 55.4939 22.84C54.7739 23.5333 53.9872 24.1333 53.1339 24.64C52.2806 25.12 51.3872 25.36 50.4539 25.36C50.1072 25.36 49.7072 25.2667 49.2539 25.08C48.8006 24.92 48.5739 24.56 48.5739 24C48.5739 23.5467 48.7472 23.0267 49.0939 22.44C49.4672 21.8267 49.9206 21.2 50.4539 20.56C50.9872 19.8933 51.5206 19.2533 52.0539 18.64C52.6139 18.0267 53.0672 17.4667 53.4139 16.96C53.7872 16.4267 53.9739 16 53.9739 15.68C53.9739 15.3333 53.7206 15.16 53.2139 15.16C52.5739 15.16 51.8006 15.4667 50.8939 16.08C50.0139 16.6667 49.0806 17.4533 48.0939 18.44C47.1072 19.4267 46.1206 20.4933 45.1339 21.64C44.1739 22.7867 43.2806 23.92 42.4539 25.04C42.1072 24.9867 41.7206 24.96 41.2939 24.96C40.8672 24.96 40.4672 25.0133 40.0939 25.12C40.0939 25.12 40.3339 24.7867 40.8139 24.12C41.2939 23.4267 41.9472 22.5067 42.7739 21.36C43.5739 20.1867 44.4806 18.88 45.4939 17.44C46.5072 15.9733 47.5472 14.48 48.6139 12.96C49.6806 11.4133 50.7206 9.92 51.7339 8.48C52.7472 7.01333 53.6539 5.70667 54.4539 4.56C55.2806 3.38667 55.9339 2.46667 56.4139 1.8C56.8939 1.10667 57.1339 0.76 57.1339 0.76ZM60.0792 25.36C58.8259 25.36 57.9992 25.08 57.5992 24.52C57.1992 23.9333 56.9992 23.32 56.9992 22.68C56.9992 21.5867 57.2792 20.5733 57.8392 19.64C58.3992 18.68 59.1192 17.8267 59.9992 17.08C60.8792 16.3333 61.7859 15.76 62.7192 15.36C63.6792 14.9333 64.5326 14.72 65.2792 14.72C65.8126 14.72 66.2392 14.8 66.5592 14.96C66.8792 15.0933 67.0392 15.3867 67.0392 15.84C67.0392 16.2667 66.7859 16.72 66.2792 17.2C65.7726 17.68 65.1326 18.1467 64.3592 18.6C63.5859 19.0267 62.7726 19.4267 61.9192 19.8C61.0926 20.1467 60.3326 20.4267 59.6392 20.64C58.9459 20.8533 58.4392 20.96 58.1192 20.96C58.1192 20.96 58.1192 20.8933 58.1192 20.76C58.1192 20.6 58.1192 20.52 58.1192 20.52C58.3592 20.5467 58.7726 20.4667 59.3592 20.28C59.9726 20.0933 60.6526 19.8533 61.3992 19.56C62.1459 19.24 62.8659 18.88 63.5592 18.48C64.2792 18.08 64.8659 17.6533 65.3192 17.2C65.7992 16.7467 66.0392 16.3067 66.0392 15.88C66.0392 15.6667 65.9726 15.48 65.8392 15.32C65.7326 15.16 65.5326 15.08 65.2392 15.08C64.8126 15.08 64.2926 15.2933 63.6792 15.72C63.0926 16.12 62.4926 16.6533 61.8792 17.32C61.2659 17.9867 60.6926 18.6933 60.1592 19.44C59.6259 20.1867 59.1859 20.9067 58.8392 21.6C58.5192 22.2667 58.3592 22.8267 58.3592 23.28C58.3592 23.8133 58.5192 24.2133 58.8392 24.48C59.1592 24.7467 59.6259 24.88 60.2392 24.88C61.3059 24.88 62.3059 24.6267 63.2392 24.12C64.1992 23.5867 65.0659 22.9733 65.8392 22.28C66.6126 21.56 67.2659 20.8933 67.7992 20.28C68.3326 19.64 68.6926 19.2267 68.8792 19.04C68.8792 19.04 68.9192 19.08 68.9992 19.16C69.1059 19.24 69.1592 19.28 69.1592 19.28C68.9726 19.4933 68.6126 19.92 68.0792 20.56C67.5459 21.2 66.8792 21.8933 66.0792 22.64C65.2792 23.3867 64.3726 24.0267 63.3592 24.56C62.3459 25.0933 61.2526 25.36 60.0792 25.36ZM68.7852 19.76C68.6785 19.8667 68.5985 19.88 68.5452 19.8C68.4918 19.6933 68.4785 19.5867 68.5052 19.48C68.9585 19.0267 69.3985 18.4933 69.8252 17.88C70.2785 17.2667 70.6518 16.6933 70.9452 16.16C71.2652 15.6267 71.4518 15.2667 71.5052 15.08C71.5585 15.08 71.6385 15.04 71.7452 14.96C71.8785 14.88 71.9985 14.8533 72.1052 14.88C72.0785 15.0667 72.0385 15.24 71.9852 15.4C71.9585 15.56 72.0518 15.7067 72.2652 15.84C72.4785 15.9733 72.9185 16.1067 73.5852 16.24C74.2518 16.3733 75.2652 16.52 76.6252 16.68C76.7585 16.7067 76.8518 16.76 76.9052 16.84C76.9852 16.8933 76.9452 16.9867 76.7852 17.12C76.2785 17.52 75.7185 18.0267 75.1052 18.64C74.4918 19.2533 73.8918 19.9067 73.3052 20.6C72.7452 21.2667 72.2785 21.92 71.9052 22.56C71.5585 23.2 71.3852 23.7333 71.3852 24.16C71.3852 24.64 71.5985 24.88 72.0252 24.88C72.5585 24.88 73.1585 24.6667 73.8252 24.24C74.5185 23.8133 75.2118 23.2933 75.9052 22.68C76.5985 22.04 77.2385 21.4 77.8252 20.76C78.4385 20.0933 78.9452 19.5467 79.3452 19.12L79.6652 19.36C79.2918 19.7333 78.8118 20.2533 78.2252 20.92C77.6385 21.5867 76.9718 22.2667 76.2252 22.96C75.5052 23.6267 74.7318 24.2 73.9052 24.68C73.0785 25.1333 72.2252 25.36 71.3452 25.36C70.8385 25.36 70.3852 25.24 69.9852 25C69.5852 24.7867 69.3852 24.3867 69.3852 23.8C69.3852 23.24 69.6252 22.6533 70.1052 22.04C70.5852 21.4267 71.1852 20.8133 71.9052 20.2C72.6252 19.56 73.3718 18.96 74.1452 18.4C74.9452 17.8133 75.6518 17.28 76.2652 16.8L76.5452 17.16C76.2785 17.0533 75.8118 16.96 75.1452 16.88C74.4785 16.7733 73.7852 16.64 73.0652 16.48C72.3452 16.2933 71.7185 16.0533 71.1852 15.76C70.6785 15.4667 70.4252 15.0667 70.4252 14.56C70.4252 14.2933 70.5318 13.9733 70.7452 13.6C70.9852 13.2 71.3052 13 71.7052 13C72.0785 13 72.3318 13.08 72.4652 13.24C72.5985 13.3733 72.6652 13.56 72.6652 13.8C72.6652 13.96 72.5318 14.2933 72.2652 14.8C71.9985 15.28 71.6652 15.8533 71.2652 16.52C70.8652 17.16 70.4385 17.7733 69.9852 18.36C69.5585 18.9467 69.1585 19.4133 68.7852 19.76ZM1.84338 42.153C1.62805 42.153 1.42971 42.0907 1.24838 41.966C1.05571 41.83 0.959379 41.6203 0.959379 41.337C0.959379 41.0423 1.07271 40.6513 1.29938 40.164C1.51471 39.6767 1.81505 39.1327 2.20038 38.532C2.58571 37.9313 3.01638 37.3193 3.49238 36.696C3.97971 36.0613 4.48405 35.455 5.00538 34.877C5.53805 34.2877 6.05938 33.7607 6.56938 33.296C7.07938 32.82 7.54971 32.446 7.98038 32.174C8.41105 31.8907 8.77371 31.749 9.06838 31.749C9.26105 31.7603 9.38571 31.8 9.44238 31.868C9.51038 31.9247 9.54438 32.0153 9.54438 32.14C9.54438 32.5253 9.42538 32.922 9.18738 33.33C8.96071 33.738 8.65471 34.1403 8.26938 34.537C7.88405 34.9223 7.46471 35.285 7.01138 35.625C6.55805 35.965 6.10471 36.2653 5.65138 36.526C5.20938 36.7867 4.80138 36.9907 4.42738 37.138C4.06471 37.2853 3.78705 37.359 3.59438 37.359C3.46971 37.359 3.39605 37.325 3.37338 37.257C3.35071 37.1777 3.42438 37.138 3.59438 37.138C3.99105 37.138 4.43871 37.0133 4.93738 36.764C5.44738 36.5033 5.95738 36.1747 6.46738 35.778C6.97738 35.37 7.44771 34.9393 7.87838 34.486C8.30905 34.0213 8.65471 33.585 8.91538 33.177C9.18738 32.769 9.32338 32.4347 9.32338 32.174C9.32338 31.9927 9.23271 31.902 9.05138 31.902C8.87005 31.902 8.61505 32.0437 8.28638 32.327C7.95771 32.599 7.58371 32.9673 7.16438 33.432C6.75638 33.8967 6.32005 34.418 5.85538 34.996C5.39071 35.5627 4.92605 36.1407 4.46138 36.73C3.97405 37.3533 3.48671 37.9653 2.99938 38.566C2.52338 39.1667 2.12671 39.7163 1.80938 40.215C1.49205 40.7137 1.33338 41.133 1.33338 41.473C1.33338 41.643 1.37871 41.7733 1.46938 41.864C1.54871 41.9433 1.68471 41.983 1.87738 41.983C2.26271 41.983 2.63105 41.881 2.98238 41.677C3.33371 41.473 3.64538 41.2123 3.91738 40.895C4.18938 40.5663 4.40471 40.2263 4.56338 39.875C4.72205 39.5123 4.80138 39.178 4.80138 38.872C4.80138 38.804 4.77871 38.685 4.73338 38.515C4.69938 38.3337 4.69938 38.1693 4.73338 38.022C4.77871 37.8747 4.90905 37.801 5.12438 37.801C5.23771 37.801 5.32838 37.8463 5.39638 37.937C5.46438 38.0163 5.49838 38.1183 5.49838 38.243C5.49838 38.6623 5.39638 39.0987 5.19238 39.552C4.99971 40.0053 4.73338 40.4303 4.39338 40.827C4.05338 41.2237 3.66238 41.5467 3.22038 41.796C2.78971 42.034 2.33071 42.153 1.84338 42.153ZM5.19238 40.878C4.99971 40.878 4.86371 40.8213 4.78438 40.708C4.71638 40.5947 4.68238 40.4757 4.68238 40.351C4.68238 40.215 4.68238 40.113 4.68238 40.045C4.68238 40.045 4.71638 40.0393 4.78438 40.028C4.85238 40.0053 4.88638 39.9883 4.88638 39.977C4.88638 40.0223 4.88071 40.1073 4.86938 40.232C4.85805 40.3453 4.86938 40.453 4.90338 40.555C4.94871 40.657 5.04505 40.708 5.19238 40.708C5.36238 40.708 5.53805 40.6513 5.71938 40.538C5.91205 40.4133 6.09338 40.2717 6.26338 40.113C6.43338 39.9543 6.56938 39.8127 6.67138 39.688C6.78471 39.552 6.84705 39.467 6.85838 39.433C6.85838 39.433 6.88105 39.45 6.92638 39.484C6.97171 39.518 6.99438 39.535 6.99438 39.535C6.97171 39.569 6.89805 39.6597 6.77338 39.807C6.66005 39.943 6.51271 40.096 6.33138 40.266C6.16138 40.4247 5.97438 40.5663 5.77038 40.691C5.57771 40.8157 5.38505 40.878 5.19238 40.878ZM8.50127 37.682C8.65994 37.7273 8.82427 37.75 8.99427 37.75C9.16427 37.7387 9.33994 37.7273 9.52127 37.716C9.21527 38.0107 8.8696 38.362 8.48427 38.77C8.11027 39.1667 7.7476 39.569 7.39627 39.977C7.05627 40.3737 6.77294 40.7307 6.54627 41.048C6.3196 41.354 6.20627 41.5637 6.20627 41.677C6.20627 41.7563 6.2346 41.83 6.29127 41.898C6.34794 41.9547 6.44427 41.983 6.58027 41.983C6.97694 41.983 7.38494 41.864 7.80427 41.626C8.23494 41.388 8.6486 41.0877 9.04527 40.725C9.45327 40.351 9.83294 39.9657 10.1843 39.569C10.5356 39.161 10.8416 38.7927 11.1023 38.464C11.3743 38.124 11.5726 37.8747 11.6973 37.716C11.7879 37.7387 11.9353 37.75 12.1393 37.75C12.3546 37.75 12.5019 37.7443 12.5813 37.733C11.4139 39.1383 10.3883 40.4303 9.50427 41.609C8.6316 42.7763 7.84394 43.7793 7.14127 44.618C6.4386 45.468 5.76994 46.1253 5.13527 46.59C4.48927 47.0547 3.81494 47.287 3.11227 47.287C2.6816 47.287 2.46627 47.117 2.46627 46.777C2.46627 46.5277 2.62494 46.267 2.94227 45.995C3.24827 45.723 3.66194 45.4397 4.18327 45.145C4.7046 44.8617 5.2826 44.5783 5.91727 44.295C6.55194 44.0117 7.19794 43.7397 7.85527 43.479C8.7166 43.139 9.42494 42.765 9.98027 42.357C10.5469 41.9603 11.0399 41.524 11.4593 41.048C11.8899 40.572 12.3263 40.0507 12.7683 39.484L12.9043 39.569C12.4509 40.147 12.0033 40.6797 11.5613 41.167C11.1193 41.643 10.6149 42.085 10.0483 42.493C9.4816 42.901 8.7676 43.2807 7.90627 43.632C7.26027 43.8927 6.63127 44.159 6.01927 44.431C5.39594 44.7143 4.83494 44.9863 4.33627 45.247C3.82627 45.519 3.42394 45.7853 3.12927 46.046C2.82327 46.3067 2.67027 46.5503 2.67027 46.777C2.67027 46.913 2.7156 46.998 2.80627 47.032C2.89694 47.0773 3.01594 47.1 3.16327 47.1C3.5146 47.1 3.89427 46.964 4.30227 46.692C4.69894 46.42 5.11827 46.0517 5.56027 45.587C6.00227 45.1223 6.44994 44.5953 6.90327 44.006C7.36794 43.428 7.83827 42.8273 8.31427 42.204C8.79027 41.5807 9.27194 40.9743 9.75927 40.385L9.69127 40.351C9.6686 40.385 9.58927 40.47 9.45327 40.606C9.31727 40.742 9.1416 40.895 8.92627 41.065C8.71094 41.235 8.46727 41.405 8.19527 41.575C7.92327 41.745 7.63427 41.8867 7.32827 42C7.0336 42.102 6.73327 42.153 6.42727 42.153C6.21194 42.153 6.0476 42.102 5.93427 42C5.8096 41.9093 5.74727 41.779 5.74727 41.609C5.74727 41.337 5.83794 41.031 6.01927 40.691C6.2006 40.3397 6.4386 39.9827 6.73327 39.62C7.0166 39.2573 7.31694 38.906 7.63427 38.566C7.9516 38.226 8.2406 37.9313 8.50127 37.682ZM18.0109 42.323C17.5802 42.323 17.2686 42.255 17.0759 42.119C16.8832 41.983 16.7699 41.8357 16.7359 41.677C16.6906 41.5183 16.6679 41.3993 16.6679 41.32C16.6792 41.1727 16.7472 41.0537 16.8719 40.963C16.9852 40.8723 17.1156 40.827 17.2629 40.827C17.3536 40.827 17.4329 40.8497 17.5009 40.895C17.5689 40.929 17.6029 41.0083 17.6029 41.133C17.6029 41.2463 17.5632 41.3257 17.4839 41.371C17.4046 41.4163 17.3196 41.439 17.2289 41.439C17.1496 41.439 17.0816 41.4277 17.0249 41.405C16.9569 41.3823 16.9229 41.371 16.9229 41.371C16.9229 41.677 17.0362 41.881 17.2629 41.983C17.4896 42.085 17.7446 42.136 18.0279 42.136C18.4699 42.136 18.9232 42.0113 19.3879 41.762C19.8639 41.5127 20.3512 41.184 20.8499 40.776C21.3486 40.3567 21.8586 39.892 22.3799 39.382C22.9126 38.8607 23.4566 38.3393 24.0119 37.818C24.6126 37.2513 25.2076 36.6903 25.7969 36.135C26.3976 35.5683 26.9756 35.0583 27.5309 34.605C28.0862 34.1517 28.6019 33.789 29.0779 33.517C29.5539 33.245 29.9789 33.109 30.3529 33.109C30.4776 33.109 30.5286 33.1317 30.5059 33.177C30.4946 33.2223 30.4039 33.2563 30.2339 33.279C29.8372 33.347 29.4009 33.5283 28.9249 33.823C28.4602 34.1063 27.9672 34.4747 27.4459 34.928C26.9246 35.37 26.3862 35.8573 25.8309 36.39C25.2869 36.9113 24.7316 37.4383 24.1649 37.971C23.6436 38.4697 23.1166 38.974 22.5839 39.484C22.0626 39.994 21.5412 40.4643 21.0199 40.895C20.5099 41.3257 19.9999 41.6713 19.4899 41.932C18.9912 42.1927 18.4982 42.323 18.0109 42.323ZM23.2469 41.558C23.1789 41.5807 23.0996 41.5977 23.0089 41.609C22.9296 41.609 22.9069 41.5807 22.9409 41.524C22.9749 41.4673 23.0372 41.371 23.1279 41.235C23.2299 41.0877 23.3206 40.912 23.3999 40.708C23.4906 40.504 23.5359 40.2943 23.5359 40.079C23.5359 39.7957 23.4849 39.4727 23.3829 39.11C23.2922 38.736 23.1392 38.3733 22.9239 38.022C22.7199 37.6707 22.4422 37.3817 22.0909 37.155C21.7509 36.917 21.3316 36.798 20.8329 36.798C20.5042 36.798 20.2209 36.8773 19.9829 37.036C19.7562 37.1947 19.5806 37.3873 19.4559 37.614C19.3426 37.8293 19.2859 38.039 19.2859 38.243C19.2859 38.685 19.4162 39.1043 19.6769 39.501C19.9489 39.8977 20.3569 40.2207 20.9009 40.47C21.4449 40.708 22.1192 40.827 22.9239 40.827C23.8079 40.827 24.6012 40.674 25.3039 40.368C26.0066 40.062 26.5959 39.6653 27.0719 39.178C27.5479 38.6907 27.8822 38.1807 28.0749 37.648C28.1316 37.478 28.1769 37.4213 28.2109 37.478C28.2562 37.5233 28.2789 37.5687 28.2789 37.614C28.2789 37.9993 28.1486 38.3903 27.8879 38.787C27.6272 39.1837 27.2589 39.552 26.7829 39.892C26.3069 40.2207 25.7572 40.487 25.1339 40.691C24.5106 40.895 23.8306 40.997 23.0939 40.997C22.3346 40.997 21.6319 40.8893 20.9859 40.674C20.3512 40.4587 19.8356 40.1413 19.4389 39.722C19.0536 39.3027 18.8609 38.7983 18.8609 38.209C18.8609 37.8123 19.0252 37.4497 19.3539 37.121C19.6939 36.781 20.1869 36.611 20.8329 36.611C21.3769 36.611 21.8302 36.7357 22.1929 36.985C22.5669 37.2343 22.8672 37.5403 23.0939 37.903C23.3206 38.2657 23.4849 38.6283 23.5869 38.991C23.6889 39.3537 23.7399 39.654 23.7399 39.892C23.7399 40.1527 23.7059 40.4133 23.6379 40.674C23.5699 40.9233 23.4962 41.133 23.4169 41.303C23.3489 41.4617 23.2922 41.5467 23.2469 41.558ZM22.2439 42.289C22.2552 42.2777 22.3686 42.1417 22.5839 41.881C22.7992 41.6203 23.0826 41.2747 23.4339 40.844C23.7852 40.4133 24.1819 39.9317 24.6239 39.399C25.0659 38.855 25.5249 38.2997 26.0009 37.733C26.4769 37.1663 26.9416 36.6167 27.3949 36.084C27.8596 35.54 28.2846 35.0527 28.6699 34.622C29.0666 34.18 29.3952 33.8287 29.6559 33.568C29.9279 33.3073 30.1036 33.1713 30.1829 33.16C30.2396 33.1373 30.2906 33.1373 30.3359 33.16C30.3812 33.1827 30.3699 33.2223 30.3019 33.279C30.2566 33.313 30.0979 33.5 29.8259 33.84C29.5539 34.1687 29.2082 34.605 28.7889 35.149C28.3809 35.6817 27.9332 36.271 27.4459 36.917C26.9699 37.5517 26.4939 38.1863 26.0179 38.821C25.5419 39.4443 25.1056 40.0223 24.7089 40.555C24.3236 41.0763 24.0062 41.4957 23.7569 41.813C23.5189 42.1303 23.3942 42.289 23.3829 42.289C23.3376 42.2777 23.2582 42.2663 23.1449 42.255C23.0429 42.2437 22.9409 42.238 22.8389 42.238C22.7369 42.238 22.6179 42.2437 22.4819 42.255C22.3572 42.2777 22.2779 42.289 22.2439 42.289ZM33.5577 31.698C33.6823 31.7207 33.8353 31.732 34.0167 31.732C34.2093 31.732 34.3623 31.7207 34.4757 31.698L28.5597 39.943C28.3783 40.215 28.2027 40.47 28.0327 40.708C27.8627 40.946 27.7267 41.1557 27.6247 41.337C27.5113 41.507 27.4547 41.643 27.4547 41.745C27.4547 41.8243 27.4887 41.881 27.5567 41.915C27.6133 41.949 27.6983 41.966 27.8117 41.966C28.0723 41.966 28.3613 41.8753 28.6787 41.694C28.996 41.5013 29.3077 41.2633 29.6137 40.98C29.931 40.6967 30.22 40.419 30.4807 40.147C30.7527 39.875 30.968 39.654 31.1267 39.484L31.2457 39.586C31.0983 39.7447 30.8943 39.9657 30.6337 40.249C30.373 40.5323 30.0727 40.8213 29.7327 41.116C29.404 41.3993 29.0583 41.643 28.6957 41.847C28.3443 42.051 27.9987 42.153 27.6587 42.153C27.4773 42.153 27.3243 42.102 27.1997 42C27.0637 41.898 26.9957 41.7507 26.9957 41.558C26.9957 41.4333 27.041 41.2747 27.1317 41.082C27.2223 40.8893 27.3357 40.691 27.4717 40.487C27.5963 40.2717 27.721 40.079 27.8457 39.909C27.959 39.7277 28.0497 39.5917 28.1177 39.501L33.5577 31.698ZM31.905 42.153C31.3723 42.153 31.021 42.034 30.851 41.796C30.681 41.5467 30.596 41.286 30.596 41.014C30.596 40.5493 30.715 40.1187 30.953 39.722C31.191 39.314 31.497 38.9513 31.871 38.634C32.245 38.3167 32.6303 38.073 33.027 37.903C33.435 37.7217 33.7976 37.631 34.115 37.631C34.3416 37.631 34.523 37.665 34.659 37.733C34.795 37.7897 34.863 37.9143 34.863 38.107C34.863 38.2883 34.7553 38.481 34.54 38.685C34.3246 38.889 34.0526 39.0873 33.724 39.28C33.3953 39.4613 33.0496 39.6313 32.687 39.79C32.3356 39.9373 32.0126 40.0563 31.718 40.147C31.4233 40.2377 31.208 40.283 31.072 40.283C31.072 40.283 31.072 40.2547 31.072 40.198C31.072 40.13 31.072 40.096 31.072 40.096C31.174 40.1073 31.3496 40.0733 31.599 39.994C31.8596 39.9147 32.1486 39.8127 32.466 39.688C32.7833 39.552 33.0893 39.399 33.384 39.229C33.69 39.059 33.9393 38.8777 34.132 38.685C34.336 38.4923 34.438 38.3053 34.438 38.124C34.438 38.0333 34.4096 37.954 34.353 37.886C34.3076 37.818 34.2226 37.784 34.098 37.784C33.9166 37.784 33.6956 37.8747 33.435 38.056C33.1856 38.226 32.9306 38.4527 32.67 38.736C32.4093 39.0193 32.1656 39.3197 31.939 39.637C31.7123 39.9543 31.5253 40.2603 31.378 40.555C31.242 40.8383 31.174 41.0763 31.174 41.269C31.174 41.4957 31.242 41.6657 31.378 41.779C31.514 41.8923 31.7123 41.949 31.973 41.949C32.4263 41.949 32.8513 41.8413 33.248 41.626C33.656 41.3993 34.0243 41.1387 34.353 40.844C34.6816 40.538 34.9593 40.2547 35.186 39.994C35.4126 39.722 35.5656 39.5463 35.645 39.467C35.645 39.467 35.662 39.484 35.696 39.518C35.7413 39.552 35.764 39.569 35.764 39.569C35.6846 39.6597 35.5316 39.841 35.305 40.113C35.0783 40.385 34.795 40.6797 34.455 40.997C34.115 41.3143 33.7296 41.5863 33.299 41.813C32.8683 42.0397 32.4036 42.153 31.905 42.153ZM35.605 39.501C36.183 38.8323 36.6476 38.362 36.999 38.09C37.3503 37.8067 37.7186 37.665 38.104 37.665C38.3306 37.665 38.512 37.7443 38.648 37.903C38.7953 38.0617 38.869 38.2487 38.869 38.464C38.869 38.7473 38.818 39.0307 38.716 39.314C38.614 39.586 38.495 39.858 38.359 40.13C38.223 40.3907 38.104 40.64 38.002 40.878C37.9 41.116 37.849 41.337 37.849 41.541C37.849 41.609 37.8603 41.6997 37.883 41.813C37.917 41.915 38.0416 41.966 38.257 41.966C38.597 41.966 38.9653 41.8357 39.362 41.575C39.77 41.303 40.1666 40.9743 40.552 40.589C40.9373 40.2037 41.266 39.8353 41.538 39.484L41.674 39.603C41.47 39.8523 41.2263 40.1243 40.943 40.419C40.6596 40.7137 40.3593 40.9913 40.042 41.252C39.7246 41.5127 39.4073 41.728 39.09 41.898C38.7726 42.068 38.478 42.153 38.206 42.153C37.8546 42.153 37.6053 42.0453 37.458 41.83C37.322 41.6147 37.254 41.405 37.254 41.201C37.254 40.929 37.305 40.6513 37.407 40.368C37.5203 40.0847 37.645 39.8127 37.781 39.552C37.917 39.28 38.036 39.0363 38.138 38.821C38.2513 38.6057 38.308 38.4243 38.308 38.277C38.308 38.1183 38.2796 38.0107 38.223 37.954C38.1663 37.8973 38.0813 37.869 37.968 37.869C37.7073 37.869 37.4126 37.9993 37.084 38.26C36.7553 38.5093 36.3076 38.9627 35.741 39.62C35.6956 39.6087 35.6503 39.569 35.605 39.501ZM34.721 41.507C34.857 41.507 34.9533 41.541 35.01 41.609C35.0553 41.6657 35.1856 41.694 35.401 41.694C35.605 41.694 35.826 41.6147 36.064 41.456C36.3133 41.2973 36.557 41.0877 36.795 40.827C37.0443 40.555 37.2766 40.2603 37.492 39.943C37.7186 39.6257 37.9113 39.3083 38.07 38.991C38.07 38.991 38.087 39.0647 38.121 39.212C38.1663 39.348 38.206 39.4897 38.24 39.637C38.274 39.773 38.291 39.841 38.291 39.841C38.4156 39.6143 38.5743 39.3763 38.767 39.127C38.971 38.8777 39.192 38.6453 39.43 38.43C39.668 38.2033 39.9173 38.022 40.178 37.886C40.4386 37.7387 40.6936 37.665 40.943 37.665C41.2036 37.665 41.3793 37.716 41.47 37.818C41.5606 37.9087 41.606 38.0107 41.606 38.124C41.606 38.2147 41.572 38.3053 41.504 38.396C41.436 38.4867 41.334 38.532 41.198 38.532C41.062 38.532 40.96 38.4923 40.892 38.413C40.8353 38.3337 40.7956 38.2487 40.773 38.158C40.7503 38.0673 40.739 38.0107 40.739 37.988C40.5236 37.988 40.297 38.056 40.059 38.192C39.8323 38.328 39.6056 38.5093 39.379 38.736C39.1523 38.9627 38.937 39.2233 38.733 39.518C38.5403 39.8013 38.3703 40.0903 38.223 40.385C38.223 40.385 38.1833 40.3397 38.104 40.249C38.0246 40.1583 37.9453 40.0677 37.866 39.977C37.7866 39.8863 37.747 39.841 37.747 39.841C37.4523 40.3623 37.1293 40.7987 36.778 41.15C36.438 41.49 36.098 41.745 35.758 41.915C35.4293 42.0737 35.1233 42.153 34.84 42.153C34.6133 42.153 34.4716 42.1133 34.415 42.034C34.347 41.9547 34.313 41.881 34.313 41.813C34.313 41.7563 34.3526 41.694 34.432 41.626C34.5 41.5467 34.5963 41.507 34.721 41.507ZM47.4108 42.153C46.9801 42.153 46.6005 42.068 46.2718 41.898C45.9431 41.728 45.7788 41.5013 45.7788 41.218C45.7788 41.0367 45.8525 40.9007 45.9998 40.81C46.1471 40.708 46.2718 40.657 46.3738 40.657C46.4758 40.657 46.5551 40.6853 46.6118 40.742C46.6798 40.7987 46.7138 40.8667 46.7138 40.946C46.7138 41.048 46.6798 41.133 46.6118 41.201C46.5325 41.2577 46.4475 41.286 46.3568 41.286C46.2548 41.286 46.1755 41.2747 46.1188 41.252C46.0621 41.218 46.0338 41.201 46.0338 41.201C46.0338 41.2917 46.0621 41.3993 46.1188 41.524C46.1641 41.6487 46.2888 41.7563 46.4928 41.847C46.6968 41.9377 47.0141 41.983 47.4448 41.983C47.8868 41.983 48.3175 41.847 48.7368 41.575C49.1561 41.2917 49.5585 40.9403 49.9438 40.521C50.3405 40.0903 50.7201 39.637 51.0828 39.161C51.4455 38.685 51.7911 38.243 52.1198 37.835C52.4598 37.427 52.7885 37.1153 53.1058 36.9C53.2305 36.8093 53.3325 36.7413 53.4118 36.696C53.5025 36.6393 53.5195 36.6393 53.4628 36.696C53.3608 36.798 53.1682 36.9567 52.8848 37.172C52.6015 37.3873 52.2671 37.6083 51.8818 37.835C51.5078 38.0617 51.1225 38.26 50.7258 38.43C50.3292 38.5887 49.9608 38.668 49.6208 38.668C49.2695 38.668 49.0201 38.6283 48.8728 38.549C48.7368 38.4583 48.6688 38.2543 48.6688 37.937C48.6688 37.495 48.8048 37.0303 49.0768 36.543C49.3601 36.0557 49.7285 35.5853 50.1818 35.132C50.6465 34.6787 51.1508 34.2707 51.6948 33.908C52.2388 33.534 52.7771 33.2393 53.3098 33.024C53.8425 32.8087 54.3242 32.701 54.7548 32.701C55.0722 32.701 55.2818 32.7577 55.3838 32.871C55.4972 32.9843 55.5538 33.1373 55.5538 33.33C55.5538 33.6247 55.3952 33.9647 55.0778 34.35C54.7718 34.724 54.3581 35.1037 53.8368 35.489C53.3268 35.863 52.7488 36.2087 52.1028 36.526C51.4682 36.8433 50.8221 37.104 50.1648 37.308C49.5075 37.5007 48.8841 37.597 48.2948 37.597C47.8415 37.597 47.4845 37.546 47.2238 37.444C46.9631 37.342 46.8045 37.2683 46.7478 37.223C46.6685 37.1663 46.6458 37.1267 46.6798 37.104C46.7251 37.0813 46.7705 37.087 46.8158 37.121C46.8611 37.155 47.0028 37.223 47.2408 37.325C47.4901 37.4157 47.8415 37.461 48.2948 37.461C48.8728 37.461 49.4848 37.3477 50.1308 37.121C50.7882 36.8943 51.4228 36.6053 52.0348 36.254C52.6581 35.8913 53.2248 35.5117 53.7348 35.115C54.2448 34.7183 54.6471 34.35 54.9418 34.01C55.2478 33.67 55.4008 33.4093 55.4008 33.228C55.4008 33.1033 55.3385 33.0127 55.2138 32.956C55.1005 32.8993 54.9815 32.871 54.8568 32.871C54.5055 32.871 54.1258 32.9787 53.7178 33.194C53.3098 33.398 52.8905 33.67 52.4598 34.01C52.0405 34.35 51.6325 34.724 51.2358 35.132C50.8505 35.5287 50.5048 35.9253 50.1988 36.322C49.8928 36.7073 49.6491 37.053 49.4678 37.359C49.2865 37.665 49.1958 37.8973 49.1958 38.056C49.1958 38.2033 49.2355 38.3167 49.3148 38.396C49.4055 38.464 49.5301 38.498 49.6888 38.498C50.0288 38.498 50.3915 38.413 50.7768 38.243C51.1735 38.073 51.5645 37.8633 51.9498 37.614C52.3465 37.3533 52.7148 37.0983 53.0548 36.849C53.4062 36.5883 53.7008 36.3673 53.9388 36.186C54.1768 36.0047 54.3355 35.9027 54.4148 35.88C54.5395 35.846 54.6245 35.846 54.6698 35.88C54.7265 35.9027 54.7095 35.9423 54.6188 35.999C54.3581 36.1463 54.0861 36.3957 53.8028 36.747C53.5195 37.0983 53.2192 37.5063 52.9018 37.971C52.5845 38.4357 52.2388 38.9117 51.8648 39.399C51.4908 39.8863 51.0828 40.3397 50.6408 40.759C50.1988 41.1783 49.7115 41.5183 49.1788 41.779C48.6461 42.0283 48.0568 42.153 47.4108 42.153ZM57.1895 37.665C57.7562 37.665 58.0395 37.937 58.0395 38.481C58.0395 38.9003 57.9432 39.331 57.7505 39.773C57.5579 40.2037 57.2972 40.6003 56.9685 40.963C56.6399 41.3143 56.2829 41.6033 55.8975 41.83C55.5122 42.0453 55.1212 42.153 54.7245 42.153C54.4185 42.153 54.1635 42.0793 53.9595 41.932C53.7442 41.7733 53.6365 41.5183 53.6365 41.167C53.6365 40.8383 53.7329 40.4757 53.9255 40.079C54.1182 39.671 54.3789 39.2857 54.7075 38.923C55.0475 38.5603 55.4272 38.26 55.8465 38.022C56.2772 37.784 56.7249 37.665 57.1895 37.665ZM57.3765 37.903C57.1839 37.903 56.9572 37.988 56.6965 38.158C56.4359 38.328 56.1695 38.549 55.8975 38.821C55.6255 39.093 55.3705 39.3877 55.1325 39.705C54.9059 40.011 54.7189 40.3113 54.5715 40.606C54.4355 40.9007 54.3675 41.15 54.3675 41.354C54.3675 41.5807 54.4299 41.7393 54.5545 41.83C54.6792 41.9093 54.8209 41.949 54.9795 41.949C55.2402 41.949 55.5349 41.8413 55.8635 41.626C56.1922 41.3993 56.5095 41.116 56.8155 40.776C57.1215 40.436 57.3709 40.079 57.5635 39.705C57.7675 39.3197 57.8695 38.9683 57.8695 38.651C57.8695 38.3563 57.8185 38.158 57.7165 38.056C57.6145 37.954 57.5012 37.903 57.3765 37.903ZM57.6825 39.654C57.7392 39.654 57.7619 39.6767 57.7505 39.722C57.7505 39.756 57.7222 39.773 57.6655 39.773C57.6202 39.773 57.5522 39.8353 57.4615 39.96C57.3822 40.0733 57.3085 40.1923 57.2405 40.317C57.1725 40.4417 57.1385 40.5097 57.1385 40.521C57.1385 40.7817 57.2349 40.912 57.4275 40.912C57.6089 40.912 57.8129 40.827 58.0395 40.657C58.2775 40.487 58.5042 40.2943 58.7195 40.079C58.9462 39.8523 59.1275 39.654 59.2635 39.484L59.3995 39.603C59.2522 39.773 59.0652 39.977 58.8385 40.215C58.6119 40.4417 58.3739 40.6457 58.1245 40.827C57.8752 40.997 57.6429 41.082 57.4275 41.082C57.2462 41.082 57.1215 41.0423 57.0535 40.963C56.9855 40.8837 56.9515 40.742 56.9515 40.538C56.9515 40.266 57.0422 40.0507 57.2235 39.892C57.4162 39.7333 57.5692 39.654 57.6825 39.654ZM59.2456 39.773C59.2003 39.8183 59.1663 39.824 59.1436 39.79C59.1209 39.7447 59.1153 39.6993 59.1266 39.654C59.3193 39.4613 59.5063 39.2347 59.6876 38.974C59.8803 38.7133 60.0389 38.4697 60.1636 38.243C60.2996 38.0163 60.3789 37.8633 60.4016 37.784C60.4243 37.784 60.4583 37.767 60.5036 37.733C60.5603 37.699 60.6113 37.6877 60.6566 37.699C60.6453 37.7783 60.6283 37.852 60.6056 37.92C60.5943 37.988 60.6339 38.0503 60.7246 38.107C60.8153 38.1637 61.0023 38.2203 61.2856 38.277C61.5689 38.3337 61.9996 38.396 62.5776 38.464C62.6343 38.4753 62.6739 38.498 62.6966 38.532C62.7306 38.5547 62.7136 38.5943 62.6456 38.651C62.4303 38.821 62.1923 39.0363 61.9316 39.297C61.6709 39.5577 61.4159 39.8353 61.1666 40.13C60.9286 40.4133 60.7303 40.691 60.5716 40.963C60.4243 41.235 60.3506 41.4617 60.3506 41.643C60.3506 41.847 60.4413 41.949 60.6226 41.949C60.8493 41.949 61.1043 41.8583 61.3876 41.677C61.6823 41.4957 61.9769 41.2747 62.2716 41.014C62.5663 40.742 62.8383 40.47 63.0876 40.198C63.3483 39.9147 63.5636 39.6823 63.7336 39.501L63.8696 39.603C63.7109 39.7617 63.5069 39.9827 63.2576 40.266C63.0083 40.5493 62.7249 40.8383 62.4076 41.133C62.1016 41.4163 61.7729 41.66 61.4216 41.864C61.0703 42.0567 60.7076 42.153 60.3336 42.153C60.1183 42.153 59.9256 42.102 59.7556 42C59.5856 41.9093 59.5006 41.7393 59.5006 41.49C59.5006 41.252 59.6026 41.0027 59.8066 40.742C60.0106 40.4813 60.2656 40.2207 60.5716 39.96C60.8776 39.688 61.1949 39.433 61.5236 39.195C61.8636 38.9457 62.1639 38.719 62.4246 38.515L62.5436 38.668C62.4303 38.6227 62.2319 38.583 61.9486 38.549C61.6653 38.5037 61.3706 38.447 61.0646 38.379C60.7586 38.2997 60.4923 38.1977 60.2656 38.073C60.0503 37.9483 59.9426 37.7783 59.9426 37.563C59.9426 37.4497 59.9879 37.3137 60.0786 37.155C60.1806 36.985 60.3166 36.9 60.4866 36.9C60.6453 36.9 60.7529 36.934 60.8096 37.002C60.8663 37.0587 60.8946 37.138 60.8946 37.24C60.8946 37.308 60.8379 37.4497 60.7246 37.665C60.6113 37.869 60.4696 38.1127 60.2996 38.396C60.1296 38.668 59.9483 38.9287 59.7556 39.178C59.5743 39.4273 59.4043 39.6257 59.2456 39.773ZM63.9664 42.153C63.7511 42.153 63.5528 42.0907 63.3714 41.966C63.1788 41.83 63.0824 41.6203 63.0824 41.337C63.0824 41.0423 63.1958 40.6513 63.4224 40.164C63.6378 39.6767 63.9381 39.1327 64.3234 38.532C64.7088 37.9313 65.1394 37.3193 65.6154 36.696C66.1028 36.0613 66.6071 35.455 67.1284 34.877C67.6611 34.2877 68.1824 33.7607 68.6924 33.296C69.2024 32.82 69.6728 32.446 70.1034 32.174C70.5341 31.8907 70.8968 31.749 71.1914 31.749C71.3841 31.7603 71.5088 31.8 71.5654 31.868C71.6334 31.9247 71.6674 32.0153 71.6674 32.14C71.6674 32.5253 71.5484 32.922 71.3104 33.33C71.0838 33.738 70.7778 34.1403 70.3924 34.537C70.0071 34.9223 69.5878 35.285 69.1344 35.625C68.6811 35.965 68.2278 36.2653 67.7744 36.526C67.3324 36.7867 66.9244 36.9907 66.5504 37.138C66.1878 37.2853 65.9101 37.359 65.7174 37.359C65.5928 37.359 65.5191 37.325 65.4964 37.257C65.4738 37.1777 65.5474 37.138 65.7174 37.138C66.1141 37.138 66.5618 37.0133 67.0604 36.764C67.5704 36.5033 68.0804 36.1747 68.5904 35.778C69.1004 35.37 69.5708 34.9393 70.0014 34.486C70.4321 34.0213 70.7778 33.585 71.0384 33.177C71.3104 32.769 71.4464 32.4347 71.4464 32.174C71.4464 31.9927 71.3558 31.902 71.1744 31.902C70.9931 31.902 70.7381 32.0437 70.4094 32.327C70.0808 32.599 69.7068 32.9673 69.2874 33.432C68.8794 33.8967 68.4431 34.418 67.9784 34.996C67.5138 35.5627 67.0491 36.1407 66.5844 36.73C66.0971 37.3533 65.6098 37.9653 65.1224 38.566C64.6464 39.1667 64.2498 39.7163 63.9324 40.215C63.6151 40.7137 63.4564 41.133 63.4564 41.473C63.4564 41.643 63.5018 41.7733 63.5924 41.864C63.6718 41.9433 63.8078 41.983 64.0004 41.983C64.3858 41.983 64.7541 41.881 65.1054 41.677C65.4568 41.473 65.7684 41.2123 66.0404 40.895C66.3124 40.5663 66.5278 40.2263 66.6864 39.875C66.8451 39.5123 66.9244 39.178 66.9244 38.872C66.9244 38.804 66.9018 38.685 66.8564 38.515C66.8224 38.3337 66.8224 38.1693 66.8564 38.022C66.9018 37.8747 67.0321 37.801 67.2474 37.801C67.3608 37.801 67.4514 37.8463 67.5194 37.937C67.5874 38.0163 67.6214 38.1183 67.6214 38.243C67.6214 38.6623 67.5194 39.0987 67.3154 39.552C67.1228 40.0053 66.8564 40.4303 66.5164 40.827C66.1764 41.2237 65.7854 41.5467 65.3434 41.796C64.9128 42.034 64.4538 42.153 63.9664 42.153ZM67.3154 40.878C67.1228 40.878 66.9868 40.8213 66.9074 40.708C66.8394 40.5947 66.8054 40.4757 66.8054 40.351C66.8054 40.215 66.8054 40.113 66.8054 40.045C66.8054 40.045 66.8394 40.0393 66.9074 40.028C66.9754 40.0053 67.0094 39.9883 67.0094 39.977C67.0094 40.0223 67.0038 40.1073 66.9924 40.232C66.9811 40.3453 66.9924 40.453 67.0264 40.555C67.0718 40.657 67.1681 40.708 67.3154 40.708C67.4854 40.708 67.6611 40.6513 67.8424 40.538C68.0351 40.4133 68.2164 40.2717 68.3864 40.113C68.5564 39.9543 68.6924 39.8127 68.7944 39.688C68.9078 39.552 68.9701 39.467 68.9814 39.433C68.9814 39.433 69.0041 39.45 69.0494 39.484C69.0948 39.518 69.1174 39.535 69.1174 39.535C69.0948 39.569 69.0211 39.6597 68.8964 39.807C68.7831 39.943 68.6358 40.096 68.4544 40.266C68.2844 40.4247 68.0974 40.5663 67.8934 40.691C67.7008 40.8157 67.5081 40.878 67.3154 40.878ZM69.7233 42.153C69.1906 42.153 68.8393 42.034 68.6693 41.796C68.4993 41.5467 68.4143 41.286 68.4143 41.014C68.4143 40.5493 68.5333 40.1187 68.7713 39.722C69.0093 39.314 69.3153 38.9513 69.6893 38.634C70.0633 38.3167 70.4486 38.073 70.8453 37.903C71.2533 37.7217 71.616 37.631 71.9333 37.631C72.16 37.631 72.3413 37.665 72.4773 37.733C72.6133 37.7897 72.6813 37.9143 72.6813 38.107C72.6813 38.2883 72.5736 38.481 72.3583 38.685C72.143 38.889 71.871 39.0873 71.5423 39.28C71.2136 39.4613 70.868 39.6313 70.5053 39.79C70.154 39.9373 69.831 40.0563 69.5363 40.147C69.2416 40.2377 69.0263 40.283 68.8903 40.283C68.8903 40.283 68.8903 40.2547 68.8903 40.198C68.8903 40.13 68.8903 40.096 68.8903 40.096C68.9923 40.1073 69.168 40.0733 69.4173 39.994C69.678 39.9147 69.967 39.8127 70.2843 39.688C70.6016 39.552 70.9076 39.399 71.2023 39.229C71.5083 39.059 71.7576 38.8777 71.9503 38.685C72.1543 38.4923 72.2563 38.3053 72.2563 38.124C72.2563 38.0333 72.228 37.954 72.1713 37.886C72.126 37.818 72.041 37.784 71.9163 37.784C71.735 37.784 71.514 37.8747 71.2533 38.056C71.004 38.226 70.749 38.4527 70.4883 38.736C70.2276 39.0193 69.984 39.3197 69.7573 39.637C69.5306 39.9543 69.3436 40.2603 69.1963 40.555C69.0603 40.8383 68.9923 41.0763 68.9923 41.269C68.9923 41.4957 69.0603 41.6657 69.1963 41.779C69.3323 41.8923 69.5306 41.949 69.7913 41.949C70.2446 41.949 70.6696 41.8413 71.0663 41.626C71.4743 41.3993 71.8426 41.1387 72.1713 40.844C72.5 40.538 72.7776 40.2547 73.0043 39.994C73.231 39.722 73.384 39.5463 73.4633 39.467C73.4633 39.467 73.4803 39.484 73.5143 39.518C73.5597 39.552 73.5823 39.569 73.5823 39.569C73.503 39.6597 73.35 39.841 73.1233 40.113C72.8966 40.385 72.6133 40.6797 72.2733 40.997C71.9333 41.3143 71.548 41.5863 71.1173 41.813C70.6866 42.0397 70.222 42.153 69.7233 42.153ZM78.8633 31.698C78.988 31.7207 79.141 31.732 79.3223 31.732C79.515 31.732 79.668 31.7207 79.7813 31.698L73.8653 39.943C73.684 40.215 73.5083 40.47 73.3383 40.708C73.1683 40.946 73.0323 41.1557 72.9303 41.337C72.817 41.507 72.7603 41.643 72.7603 41.745C72.7603 41.8243 72.7943 41.881 72.8623 41.915C72.919 41.949 73.004 41.966 73.1173 41.966C73.378 41.966 73.667 41.8753 73.9843 41.694C74.3017 41.5013 74.6133 41.2633 74.9193 40.98C75.2367 40.6967 75.5257 40.419 75.7863 40.147C76.0583 39.875 76.2737 39.654 76.4323 39.484L76.5513 39.586C76.404 39.7447 76.2 39.9657 75.9393 40.249C75.6787 40.5323 75.3783 40.8213 75.0383 41.116C74.7097 41.3993 74.364 41.643 74.0013 41.847C73.65 42.051 73.3043 42.153 72.9643 42.153C72.783 42.153 72.63 42.102 72.5053 42C72.3693 41.898 72.3013 41.7507 72.3013 41.558C72.3013 41.4333 72.3467 41.2747 72.4373 41.082C72.528 40.8893 72.6413 40.691 72.7773 40.487C72.902 40.2717 73.0267 40.079 73.1513 39.909C73.2647 39.7277 73.3553 39.5917 73.4233 39.501L78.8633 31.698Z" fill="#A89479"/>
    </symbol>
</svg>
